<svg preserveAspectRatio="none" width="100%" height="100%" overflow="visible" style="display: block;" viewBox="0 0 16 16" fill="none" xmlns="http://www.w3.org/2000/svg">
<g id="OBJECT" clip-path="url(#clip0_0_6)">
<path id="Vector" d="M11.82 2.605L12.54 2.75L11.545 3.745L12.25 4.45L13.245 3.455L13.39 4.175C13.42 4.32 13.525 4.435 13.665 4.48C13.705 4.49 13.74 4.495 13.78 4.495C13.885 4.495 13.985 4.455 14.065 4.38L14.505 3.94C15.31 3.135 15.655 1.99 15.435 0.875C15.405 0.715 15.28 0.595 15.12 0.56C14.005 0.335 12.86 0.685 12.055 1.49L11.615 1.93C11.51 2.035 11.47 2.185 11.515 2.33C11.56 2.47 11.675 2.575 11.82 2.605Z" fill="var(--fill-0, white)"/>
<path id="Vector_2" d="M4.785 11.925L9.24 7.47L8.535 6.765L4.08 11.22L3.115 11.025C2.74 10.95 2.36 11.065 2.09 11.335L0.635 12.79C0.52 12.905 0.475 13.075 0.525 13.235C0.57 13.39 0.7 13.51 0.865 13.54L2.205 13.81L2.475 15.15C2.505 15.31 2.625 15.44 2.78 15.49C2.825 15.505 2.865 15.51 2.91 15.51C3.025 15.51 3.14 15.465 3.225 15.38L4.68 13.925C4.95 13.655 5.065 13.275 4.99 12.9L4.795 11.935L4.785 11.925Z" fill="var(--fill-0, white)"/>
<path id="Vector_3" d="M15.095 8.715L7.285 0.905C6.745 0.365 5.87 0.365 5.335 0.905C4.44 1.8 2.955 1.815 2.15 1.75C1.435 1.685 0.805 2.145 0.63 2.83L0.515 3.275C0.455 3.515 0.575 3.765 0.805 3.86C0.83 3.87 0.975 3.91 1.205 3.955L1.86 5.445C2.51 6.925 3.36 8.29 4.375 9.505L5.085 8.795C4.155 7.67 3.375 6.41 2.775 5.045L2.365 4.11C3.53 4.195 5.145 4.12 6.53 3.345L12.655 9.47C11.88 10.855 11.8 12.47 11.89 13.635L10.955 13.225C9.59 12.625 8.33 11.85 7.205 10.915L6.495 11.625C7.71 12.64 9.075 13.49 10.555 14.14L12.045 14.795C12.09 15.025 12.13 15.175 12.14 15.195C12.22 15.385 12.405 15.5 12.6 15.5C12.64 15.5 12.685 15.5 12.725 15.485L13.17 15.37C13.855 15.195 14.31 14.555 14.25 13.85C14.18 13.045 14.2 11.555 15.095 10.665C15.635 10.125 15.635 9.255 15.095 8.715Z" fill="var(--fill-0, white)"/>
</g>
<defs>
<clipPath id="clip0_0_6">
<rect width="16" height="16" fill="white"/>
</clipPath>
</defs>
</svg>
