<svg preserveAspectRatio="none" width="100%" height="100%" overflow="visible" style="display: block;" viewBox="0 0 15.3593 14.6921" fill="none" xmlns="http://www.w3.org/2000/svg">
<g id="Group">
<path id="Vector" d="M1.12211 12.2366C0.909481 12.7362 1.14042 13.3194 1.64814 13.5346C2.14923 13.7488 2.73292 13.514 2.94717 13.0086L3.23326 12.3329C2.57473 12.1713 1.96836 11.8701 1.45136 11.4575L1.12211 12.2366Z" fill="var(--fill-0, white)"/>
<path id="Vector_2" d="M6.72582 7.41186C7.98873 7.41186 9.08698 8.13668 9.62407 9.19277L12.6478 6.79949C12.6277 6.76836 12.6097 6.73624 12.5926 6.70311L10.0377 1.75193C10.0206 1.7188 10.0045 1.68468 9.99048 1.65052L3.13792 3.64224C0.501793 4.40843 -0.765894 7.38565 0.485668 9.81318C1.08398 10.9727 2.15814 11.7959 3.43411 12.0709C3.56561 12.099 3.69714 12.1211 3.82864 12.1372C3.60176 11.6945 3.47426 11.1935 3.47426 10.6635C3.47423 8.87052 4.93289 7.41186 6.72582 7.41186Z" fill="var(--fill-0, white)"/>
<path id="Vector_3" d="M12.8596 6.56458C13.138 7.10277 13.7996 7.32227 14.3494 7.04043C14.8914 6.76114 15.1059 6.09339 14.8252 5.55064L12.2713 0.599457C12.1358 0.337457 11.9069 0.142676 11.6258 0.0533321C11.3437 -0.0370116 11.0446 -0.0119179 10.7816 0.123613C10.5195 0.259145 10.3258 0.48902 10.2354 0.770113C10.1461 1.05121 10.1712 1.35136 10.3057 1.61336L12.8596 6.56458Z" fill="var(--fill-0, white)"/>
<path id="Vector_4" d="M6.72548 11.4302C7.14905 11.4302 7.49242 11.0868 7.49242 10.6632C7.49242 10.2397 7.14905 9.8963 6.72548 9.8963C6.30191 9.8963 5.95854 10.2397 5.95854 10.6632C5.95854 11.0868 6.30191 11.4302 6.72548 11.4302Z" fill="var(--fill-0, white)"/>
<path id="Vector_5" d="M6.72582 7.71302C5.09851 7.71302 3.77539 9.03614 3.77539 10.6635C3.77539 12.2898 5.09851 13.6129 6.72582 13.6129C8.35214 13.6129 9.67526 12.2898 9.67526 10.6635C9.67526 9.03614 8.35214 7.71302 6.72582 7.71302ZM6.72548 11.7313C6.13648 11.7313 5.65739 11.2522 5.65739 10.6632C5.65739 10.0742 6.13648 9.59514 6.72548 9.59514C7.31448 9.59514 7.79357 10.0742 7.79357 10.6632C7.79357 11.2522 7.31448 11.7313 6.72548 11.7313Z" fill="var(--fill-0, white)"/>
<path id="Vector_6" d="M13.0875 10.1475C11.8336 10.1475 10.8147 11.1674 10.8147 12.4203C10.8147 13.6731 11.8336 14.6921 13.0875 14.6921C14.3403 14.6921 15.3593 13.6731 15.3593 12.4203C15.3593 11.1674 14.3404 10.1475 13.0875 10.1475Z" fill="var(--fill-0, white)"/>
</g>
</svg>
