<svg preserveAspectRatio="none" width="100%" height="100%" overflow="visible" style="display: block;" viewBox="0 0 16 16" fill="none" xmlns="http://www.w3.org/2000/svg">
<g id="GearSix">
<path id="Vector" d="M14.8713 6.70062C14.8573 6.63022 14.8284 6.56363 14.7864 6.50539C14.7445 6.44716 14.6905 6.39863 14.6281 6.36312L12.7638 5.30062L12.7563 3.19937C12.756 3.12701 12.7401 3.05555 12.7096 2.98995C12.679 2.92434 12.6346 2.86614 12.5794 2.81938C11.9031 2.24731 11.1243 1.80892 10.2844 1.5275C10.2182 1.50511 10.1481 1.49683 10.0786 1.50318C10.0091 1.50953 9.94162 1.53038 9.88063 1.56438L8 2.61562L6.1175 1.5625C6.05647 1.52831 5.98895 1.50731 5.91929 1.50085C5.84964 1.49439 5.7794 1.50262 5.71312 1.525C4.87373 1.80822 4.09578 2.24832 3.42062 2.82188C3.36548 2.86857 3.32111 2.92667 3.29058 2.99216C3.26004 3.05766 3.24407 3.12899 3.24375 3.20125L3.23438 5.30438L1.37 6.36688C1.30763 6.40238 1.25363 6.45091 1.21168 6.50914C1.16972 6.56738 1.1408 6.63397 1.12688 6.70437C0.956248 7.5618 0.956248 8.44445 1.12688 9.30188C1.1408 9.37228 1.16972 9.43887 1.21168 9.49711C1.25363 9.55534 1.30763 9.60387 1.37 9.63937L3.23438 10.7019L3.24187 12.8037C3.2421 12.8761 3.25803 12.9476 3.28857 13.0132C3.31911 13.0788 3.36352 13.137 3.41875 13.1837C4.09504 13.7558 4.87385 14.1942 5.71375 14.4756C5.77989 14.498 5.84999 14.5063 5.91953 14.4999C5.98907 14.4936 6.05651 14.4727 6.1175 14.4387L8 13.3844L9.8825 14.4375C9.957 14.479 10.041 14.5005 10.1263 14.5C10.1809 14.5 10.2351 14.4911 10.2869 14.4737C11.1261 14.1907 11.904 13.751 12.5794 13.1781C12.6345 13.1314 12.6789 13.0733 12.7094 13.0078C12.74 12.9423 12.7559 12.871 12.7563 12.7987L12.7656 10.6956L14.63 9.63313C14.6924 9.59762 14.7464 9.54909 14.7883 9.49086C14.8303 9.43262 14.8592 9.36603 14.8731 9.29562C15.0428 8.43888 15.0422 7.55712 14.8713 6.70062ZM8 10.5C7.50555 10.5 7.0222 10.3534 6.61107 10.0787C6.19995 9.80397 5.87952 9.41352 5.6903 8.95671C5.50108 8.49989 5.45157 7.99723 5.54804 7.51227C5.6445 7.02732 5.8826 6.58186 6.23223 6.23223C6.58186 5.8826 7.02732 5.6445 7.51227 5.54804C7.99723 5.45157 8.49989 5.50108 8.95671 5.6903C9.41352 5.87952 9.80397 6.19995 10.0787 6.61107C10.3534 7.0222 10.5 7.50555 10.5 8C10.5 8.66304 10.2366 9.29893 9.76777 9.76777C9.29893 10.2366 8.66304 10.5 8 10.5Z" fill="var(--fill-0, white)"/>
</g>
</svg>
