<svg preserveAspectRatio="none" width="100%" height="100%" overflow="visible" style="display: block;" viewBox="0 0 16 16" fill="none" xmlns="http://www.w3.org/2000/svg">
<g id="Heart">
<path id="w" d="M0 3.89558C0.278607 3.86962 0.543947 3.82419 0.79602 3.75929C1.05473 3.68791 1.29022 3.61003 1.50249 3.52566C1.72139 3.43481 1.91376 3.34395 2.0796 3.2531C2.25207 3.16224 2.39469 3.07788 2.50746 3C2.24876 4.70678 2.1194 6.35192 2.1194 7.9354C2.13267 8.21445 2.14262 8.46431 2.14925 8.68496C2.16252 8.9056 2.1791 9.10678 2.19901 9.2885C2.21891 9.46372 2.25207 9.62596 2.29851 9.77522C2.34494 9.91799 2.40796 10.0543 2.48756 10.1841C2.74627 10.5605 3.08458 10.8914 3.50249 11.177C3.9204 11.456 4.36153 11.6897 4.82587 11.8779C5.29685 12.0596 5.76119 12.1991 6.21891 12.2965C6.67662 12.3873 7.07131 12.4327 7.40299 12.4327C7.86733 12.4327 8.29851 12.3646 8.69652 12.2283C8.1791 11.7027 7.80431 11.1348 7.57214 10.5248C7.33997 9.90826 7.21393 9.24307 7.19403 8.5292C7.16086 7.58171 7.11443 6.75428 7.05473 6.0469C6.99503 5.33304 6.91874 4.73274 6.82587 4.24602L6.74627 3.89558C7.02488 3.86962 7.29022 3.82419 7.54229 3.75929C7.801 3.68791 8.03648 3.61003 8.24876 3.52566C8.46766 3.43481 8.66003 3.34395 8.82587 3.2531C8.99834 3.16224 9.14096 3.07788 9.25373 3C8.99503 4.70678 8.86567 6.35192 8.86567 7.9354C8.87894 8.21445 8.88889 8.46431 8.89552 8.68496C8.90879 8.9056 8.92537 9.10678 8.94527 9.2885C8.96517 9.46372 8.99834 9.62596 9.04478 9.77522C9.09121 9.91799 9.15423 10.0543 9.23383 10.1841C9.4262 10.4631 9.64511 10.713 9.89055 10.9336C10.1426 11.1543 10.4511 11.3555 10.8159 11.5372C11.1808 11.7124 11.6119 11.8779 12.1095 12.0336C12.6136 12.1829 13.2139 12.3289 13.9104 12.4717H13.9204C13.9469 12.2316 13.9635 11.8519 13.9701 11.3327C13.9834 10.8071 13.9901 10.1354 13.9901 9.3177V8.97699C13.9768 8.06844 13.9403 7.22153 13.8806 6.43628C13.8275 5.64454 13.7247 4.91445 13.5721 4.24602L13.4925 3.89558C13.7711 3.86962 14.0365 3.82419 14.2886 3.75929C14.5473 3.68791 14.7828 3.61003 14.995 3.52566C15.2139 3.43481 15.4063 3.34395 15.5721 3.2531C15.7446 3.16224 15.8872 3.07788 16 3C15.874 3.97994 15.7778 4.87227 15.7114 5.67699C15.6517 6.47522 15.6219 7.19882 15.6219 7.84779C15.6219 8.37994 15.6252 8.87316 15.6318 9.32743C15.6451 9.78171 15.6617 10.2165 15.6816 10.6319C15.7081 11.0407 15.7413 11.4366 15.7811 11.8195C15.8275 12.2024 15.8839 12.5885 15.9502 12.9779L16 13.1336C15.5954 13.1791 15.1907 13.2732 14.7861 13.4159C14.3881 13.5522 13.9569 13.7469 13.4925 14C13.5589 13.8118 13.6285 13.6074 13.7015 13.3867C13.7745 13.1596 13.8474 12.9227 13.9204 12.6761L11.7413 14C11.5622 13.9546 11.3532 13.8864 11.1144 13.7956C10.8823 13.7047 10.6368 13.5912 10.3781 13.4549C10.126 13.3186 9.86733 13.1628 9.60199 12.9876C9.33665 12.8059 9.08458 12.6015 8.84577 12.3743L4.99503 14C4.71642 13.9286 4.37811 13.8021 3.9801 13.6204C3.58209 13.4322 3.18076 13.1953 2.77612 12.9097C2.37148 12.6177 1.99668 12.277 1.65174 11.8876C1.3068 11.4982 1.04478 11.0602 0.865672 10.5735C0.606965 9.95044 0.467662 9.26903 0.447761 8.5292C0.414594 7.58171 0.368159 6.75428 0.308458 6.0469C0.248756 5.33304 0.172471 4.73274 0.079602 4.24602L0 3.89558Z" fill="var(--fill-0, white)"/>
</g>
</svg>
