<svg preserveAspectRatio="none" width="100%" height="100%" overflow="visible" style="display: block;" viewBox="0 0 16 16" fill="none" xmlns="http://www.w3.org/2000/svg">
<g id="Sword">
<path id="Vector" d="M13.5 2H9.5C9.42343 1.99999 9.34788 2.01757 9.27918 2.05138C9.21048 2.08519 9.15046 2.13433 9.10375 2.195L5.10375 7.39563L4.5 6.79313C4.40713 6.70015 4.29684 6.62639 4.17544 6.57607C4.05404 6.52574 3.92392 6.49984 3.7925 6.49984C3.66108 6.49984 3.53096 6.52574 3.40956 6.57607C3.28816 6.62639 3.17787 6.70015 3.085 6.79313L2.54187 7.33687C2.44899 7.42974 2.37531 7.53999 2.32504 7.66133C2.27477 7.78267 2.2489 7.91272 2.2489 8.04406C2.2489 8.1754 2.27477 8.30546 2.32504 8.4268C2.37531 8.54814 2.44899 8.65839 2.54187 8.75125L3.91688 10.1263L1.91688 12.1263C1.82399 12.2191 1.75031 12.3294 1.70004 12.4507C1.64977 12.572 1.6239 12.7021 1.6239 12.8334C1.6239 12.9648 1.64977 13.0948 1.70004 13.2162C1.75031 13.3375 1.82399 13.4478 1.91688 13.5406L2.46 14.0831C2.64752 14.2705 2.90177 14.3758 3.16688 14.3758C3.43198 14.3758 3.68623 14.2705 3.87375 14.0831L5.87375 12.0831L7.24875 13.4581C7.34162 13.5511 7.45191 13.6249 7.57331 13.6752C7.69471 13.7255 7.82484 13.7514 7.95625 13.7514C8.08767 13.7514 8.21779 13.7255 8.33919 13.6752C8.46059 13.6249 8.57088 13.5511 8.66375 13.4581L9.20688 12.9144C9.29976 12.8215 9.37344 12.7113 9.42371 12.5899C9.47398 12.4686 9.49985 12.3385 9.49985 12.2072C9.49985 12.0758 9.47398 11.9458 9.42371 11.8245C9.37344 11.7031 9.29976 11.5929 9.20688 11.5L8.60438 10.8975L13.805 6.8975C13.8658 6.85066 13.9151 6.79044 13.9489 6.72151C13.9827 6.65258 14.0002 6.57678 14 6.5V2.5C14 2.36739 13.9473 2.24021 13.8536 2.14645C13.7598 2.05268 13.6326 2 13.5 2ZM13 6.25375L7.89125 10.1838L7.2075 9.5L10.3538 6.35375C10.4475 6.25993 10.5001 6.13271 10.5001 6.00009C10.5 5.86747 10.4473 5.7403 10.3534 5.64656C10.2596 5.55283 10.1324 5.5002 9.99978 5.50026C9.86716 5.50031 9.73999 5.55305 9.64625 5.64687L6.5 8.7925L5.81688 8.10875L9.74625 3H13V6.25375Z" fill="var(--fill-0, white)"/>
</g>
</svg>
